<?xml version="1.0" encoding="utf-8" ?>
<svg baseProfile="full" height="13px" version="1.1" width="13px" xmlns="http://www.w3.org/2000/svg" xmlns:ev="http://www.w3.org/2001/xml-events" xmlns:xlink="http://www.w3.org/1999/xlink"><defs /><rect fill="rgb(150,110,49)" height="1px" width="1px" x="4px" y="0px" /><rect fill="rgb(150,110,49)" height="1px" width="1px" x="5px" y="0px" /><rect fill="rgb(150,110,49)" height="1px" width="1px" x="6px" y="0px" /><rect fill="rgb(233,182,54)" height="1px" width="1px" x="7px" y="0px" /><rect fill="rgb(254,233,106)" height="1px" width="1px" x="8px" y="0px" /><rect fill="rgb(150,110,49)" height="1px" width="1px" x="3px" y="1px" /><rect fill="rgb(150,110,49)" height="1px" width="1px" x="4px" y="1px" /><rect fill="rgb(226,171,52)" height="1px" width="1px" x="5px" y="1px" /><rect fill="rgb(169,99,63)" height="1px" width="1px" x="6px" y="1px" /><rect fill="rgb(150,110,49)" height="1px" width="1px" x="7px" y="1px" /><rect fill="rgb(233,182,54)" height="1px" width="1px" x="8px" y="1px" /><rect fill="rgb(150,110,49)" height="1px" width="1px" x="3px" y="2px" /><rect fill="rgb(226,171,52)" height="1px" width="1px" x="4px" y="2px" /><rect fill="rgb(150,110,49)" height="1px" width="1px" x="5px" y="2px" /><rect fill="rgb(150,110,49)" height="1px" width="1px" x="6px" y="2px" /><rect fill="rgb(150,110,49)" height="1px" width="1px" x="7px" y="2px" /><rect fill="rgb(169,99,63)" height="1px" width="1px" x="8px" y="2px" /><rect fill="rgb(254,216,109)" height="1px" width="1px" x="9px" y="2px" /><rect fill="rgb(150,110,49)" height="1px" width="1px" x="3px" y="3px" /><rect fill="rgb(150,110,49)" height="1px" width="1px" x="4px" y="3px" /><rect fill="rgb(255,251,213)" height="1px" width="1px" x="5px" y="3px" /><rect fill="rgb(150,110,49)" height="1px" width="1px" x="6px" y="3px" /><rect fill="rgb(255,251,213)" height="1px" width="1px" x="7px" y="3px" /><rect fill="rgb(150,110,49)" height="1px" width="1px" x="8px" y="3px" /><rect fill="rgb(254,216,109)" height="1px" width="1px" x="9px" y="3px" /><rect fill="rgb(150,110,49)" height="1px" width="1px" x="3px" y="4px" /><rect fill="rgb(255,251,213)" height="1px" width="1px" x="4px" y="4px" /><rect fill="rgb(15,190,185)" height="1px" width="1px" x="5px" y="4px" /><rect fill="rgb(255,251,213)" height="1px" width="1px" x="6px" y="4px" /><rect fill="rgb(255,251,213)" height="1px" width="1px" x="7px" y="4px" /><rect fill="rgb(15,190,185)" height="1px" width="1px" x="8px" y="4px" /><rect fill="rgb(255,251,213)" height="1px" width="1px" x="9px" y="4px" /><rect fill="rgb(207,218,186)" height="1px" width="1px" x="3px" y="5px" /><rect fill="rgb(170,183,165)" height="1px" width="1px" x="4px" y="5px" /><rect fill="rgb(255,204,177)" height="1px" width="1px" x="5px" y="5px" /><rect fill="rgb(255,251,213)" height="1px" width="1px" x="6px" y="5px" /><rect fill="rgb(255,251,213)" height="1px" width="1px" x="7px" y="5px" /><rect fill="rgb(255,204,177)" height="1px" width="1px" x="8px" y="5px" /><rect fill="rgb(217,225,212)" height="1px" width="1px" x="9px" y="5px" /><rect fill="rgb(103,110,126)" height="1px" width="1px" x="4px" y="6px" /><rect fill="rgb(170,183,165)" height="1px" width="1px" x="5px" y="6px" /><rect fill="rgb(207,218,186)" height="1px" width="1px" x="6px" y="6px" /><rect fill="rgb(170,183,165)" height="1px" width="1px" x="7px" y="6px" /><rect fill="rgb(217,225,212)" height="1px" width="1px" x="8px" y="6px" /><rect fill="rgb(55,1,63)" height="1px" width="1px" x="4px" y="7px" /><rect fill="rgb(103,110,126)" height="1px" width="1px" x="5px" y="7px" /><rect fill="rgb(51,2,93)" height="1px" width="1px" x="6px" y="7px" /><rect fill="rgb(115,122,128)" height="1px" width="1px" x="7px" y="7px" /><rect fill="rgb(215,226,210)" height="1px" width="1px" x="8px" y="7px" /><rect fill="rgb(10,8,73)" height="1px" width="1px" x="4px" y="8px" /><rect fill="rgb(55,1,63)" height="1px" width="1px" x="5px" y="8px" /><rect fill="rgb(8,11,46)" height="1px" width="1px" x="6px" y="8px" /><rect fill="rgb(115,122,128)" height="1px" width="1px" x="7px" y="8px" /><rect fill="rgb(215,226,210)" height="1px" width="1px" x="8px" y="8px" /><rect fill="rgb(55,1,63)" height="1px" width="1px" x="4px" y="9px" /><rect fill="rgb(8,11,46)" height="1px" width="1px" x="5px" y="9px" /><rect fill="rgb(51,2,93)" height="1px" width="1px" x="6px" y="9px" /><rect fill="rgb(67,0,69)" height="1px" width="1px" x="7px" y="9px" /><rect fill="rgb(246,182,219)" height="1px" width="1px" x="8px" y="9px" /><rect fill="rgb(10,8,73)" height="1px" width="1px" x="4px" y="10px" /><rect fill="rgb(10,8,73)" height="1px" width="1px" x="5px" y="10px" /><rect fill="rgb(10,8,73)" height="1px" width="1px" x="6px" y="10px" /><rect fill="rgb(10,8,73)" height="1px" width="1px" x="7px" y="10px" /><rect fill="rgb(223,209,209)" height="1px" width="1px" x="8px" y="10px" /><rect fill="rgb(24,18,116)" height="1px" width="1px" x="5px" y="11px" /><rect fill="rgb(28,23,103)" height="1px" width="1px" x="7px" y="11px" /><rect fill="rgb(8,9,40)" height="1px" width="1px" x="5px" y="12px" /><rect fill="rgb(63,40,182)" height="1px" width="1px" x="7px" y="12px" /></svg>